<?xml version="1.0" standalone="no"?>
<!DOCTYPE svg PUBLIC "-//W3C//DTD SVG 20010904//EN"
 "http://www.w3.org/TR/2001/REC-SVG-20010904/DTD/svg10.dtd">
<svg version="1.0" xmlns="http://www.w3.org/2000/svg"
 width="260.000000pt" height="260.000000pt" viewBox="0 0 260.000000 260.000000"
 preserveAspectRatio="xMidYMid meet">
<metadata>
Created by potrace 1.11, written by Peter Selinger 2001-2013
</metadata>
<g transform="translate(0.000000,260.000000) scale(0.100000,-0.100000)"
fill="#000000" stroke="none">
<path d="M1150 2593 c-322 -49 -551 -162 -765 -378 -265 -265 -388 -572 -380
-945 2 -80 6 -158 10 -175 21 -101 28 -128 51 -200 61 -192 163 -356 318 -510
251 -249 534 -372 876 -380 203 -5 352 21 527 91 195 79 353 194 518 379 115
129 244 405 271 580 3 22 10 60 14 85 9 48 6 304 -4 355 -4 17 -11 53 -16 80
-29 143 -104 317 -195 456 -62 93 -248 280 -340 341 -137 91 -318 169 -460
198 -27 5 -63 12 -80 16 -35 7 -308 13 -345 7z m449 -837 c15 -14 21 -33 23
-80 l3 -61 70 -1 c83 -1 106 -7 122 -34 14 -21 2 -68 -20 -82 -7 -4 -50 -8
-95 -8 l-84 0 4 -177 c4 -193 8 -212 65 -265 15 -15 46 -34 68 -41 121 -43
241 33 260 163 8 54 29 80 65 80 45 0 64 -31 57 -95 -11 -107 -82 -206 -182
-255 -41 -20 -65 -25 -135 -25 -98 0 -155 22 -221 85 l-39 37 -39 -37 c-65
-62 -123 -84 -221 -85 -74 0 -92 4 -140 28 -30 16 -69 43 -87 62 l-32 33 -39
-37 c-65 -63 -123 -86 -222 -86 -70 0 -94 5 -135 25 -101 49 -168 143 -181
254 -8 65 10 96 56 96 36 0 57 -26 65 -80 12 -80 58 -138 130 -163 122 -43
244 34 261 166 7 51 28 77 64 77 36 0 56 -25 65 -80 13 -82 58 -138 130 -163
77 -27 152 -9 208 51 50 52 54 80 55 390 l0 287 26 22 c29 25 47 24 75 -1z"/>
</g>
</svg>
