<svg width="45" height="45" xmlns="http://www.w3.org/2000/svg"><path d="M27.654 19.434h2.407a1.044 1.044 0 1 0 0-2.09h-2.407v-1.69a1.044 1.044 0 0 0-2.09 0v8.802a3.34 3.34 0 0 1-3.33 3.344 3.347 3.347 0 0 1-3.341-3.344 1.045 1.045 0 0 0-2.09 0c0 1.844-1.5 3.344-3.343 3.344a3.347 3.347 0 0 1-3.343-3.344 1.045 1.045 0 0 0-2.09 0 5.438 5.438 0 0 0 5.433 5.432c1.8 0 3.399-.88 4.389-2.232a5.425 5.425 0 0 0 4.386 2.232 5.41 5.41 0 0 0 4.376-2.23 5.43 5.43 0 0 0 4.386 2.23 5.44 5.44 0 0 0 5.433-5.432 1.045 1.045 0 0 0-2.09 0c0 1.844-1.5 3.344-3.343 3.344a3.348 3.348 0 0 1-3.343-3.298v-5.068zm16.502 3.187c0 12.113-9.82 21.933-21.932 21.933-12.113 0-21.932-9.82-21.932-21.933S10.11.69 22.224.69c12.113 0 21.932 9.82 21.932 21.932z" fill="#FFF" fill-rule="evenodd"/></svg>