<svg width="118" height="45" xmlns="http://www.w3.org/2000/svg"><g fill="#FFF" fill-rule="evenodd"><path d="M71.875 9.629l-2.776 6.529h-.328l-1.974-5.2-1.994 5.2h-.308l-2.749-6.53h.674l2.191 5.222 2.017-5.221h.373l1.952 5.22 2.242-5.22zM76.1 12.044h4.16c-.241-1.249-.92-1.873-2.03-1.873-.526 0-.982.164-1.365.491-.384.327-.64.788-.765 1.382m4.97.55h-5.06a2.663 2.663 0 0 0-.021.334c0 .715.256 1.32.767 1.817a2.524 2.524 0 0 0 1.816.744c.814 0 1.61-.318 2.386-.953v.772a3.942 3.942 0 0 1-2.47.85c-.926 0-1.692-.32-2.297-.96-.605-.64-.907-1.456-.907-2.444 0-.938.279-1.713.837-2.329.559-.614 1.26-.922 2.109-.922.795 0 1.468.278 2.016.832.55.555.825 1.308.825 2.26M89.037 10.046v.738c-.652-.436-1.238-.654-1.76-.654-.386 0-.712.104-.976.312-.266.208-.399.465-.399.771a.89.89 0 0 0 .242.6c.162.183.606.414 1.333.694.728.281 1.204.572 1.427.873.224.302.335.64.335 1.01 0 .496-.202.915-.607 1.256-.405.341-.906.512-1.5.512-.648 0-1.29-.195-1.928-.585v-.668c.76.39 1.432.584 2.018.584.395 0 .72-.104.973-.313a.988.988 0 0 0 .381-.799.913.913 0 0 0-.248-.616c-.165-.188-.612-.426-1.34-.714-.728-.288-1.2-.573-1.417-.854a1.49 1.49 0 0 1-.325-.936c0-.487.201-.9.604-1.242.403-.34.892-.51 1.47-.51.526 0 1.098.18 1.717.541M94.88 7.506v2.123h1.802v.557H94.88v3.807c0 .613.05 1.015.15 1.208.1.193.37.289.807.289.335 0 .726-.105 1.173-.313v.654a3.04 3.04 0 0 1-1.327.327c-.423 0-.777-.121-1.061-.362-.284-.241-.426-.575-.426-1.002v-4.608h-1.731v-.557h1.73V8.105l.469-.6h.216zM103.984 15.49c.722 0 1.324-.252 1.808-.756.484-.503.726-1.135.726-1.896 0-.756-.243-1.39-.729-1.9a2.396 2.396 0 0 0-1.805-.766c-.726 0-1.332.253-1.818.759-.487.506-.73 1.142-.73 1.907 0 .76.243 1.393.73 1.897.486.504 1.092.755 1.818.755m0-5.987c.931 0 1.707.318 2.328.954.621.636.932 1.43.932 2.38 0 .948-.31 1.737-.932 2.37-.62.634-1.397.95-2.328.95-.93 0-1.709-.316-2.335-.95-.626-.633-.938-1.423-.938-2.37 0-.95.312-1.744.938-2.38.626-.636 1.404-.954 2.335-.954M112.488 9.629v1.114h.028c.535-.826 1.241-1.24 2.116-1.24.725 0 1.304.233 1.738.697.432.464.648 1.107.648 1.928v3.905h-.683v-3.648c0-1.475-.582-2.213-1.745-2.213-.852 0-1.552.457-2.102 1.37v4.49h-.684V9.63h.684zM63.889 27.305v2.122h1.802v.558h-1.802v3.806c0 .614.05 1.016.15 1.209.1.192.37.288.807.288.335 0 .726-.104 1.173-.312v.653a3.04 3.04 0 0 1-1.327.327c-.423 0-.777-.12-1.061-.362-.284-.24-.426-.575-.426-1.002v-4.607h-1.731v-.558h1.73v-1.523l.469-.6h.216zM73.377 34.564v-1.998c-.879-.03-1.608.123-2.188.463-.58.342-.87.777-.87 1.306 0 .296.121.547.364.751.242.205.545.306.907.306.587 0 1.183-.275 1.787-.828m1.76.153v.572c-.592.445-1.025.668-1.299.668-.158 0-.268-.053-.328-.157-.061-.105-.105-.317-.133-.637-.675.53-1.345.794-2.01.794-.484 0-.893-.159-1.228-.474a1.518 1.518 0 0 1-.503-1.148c0-.697.323-1.246.97-1.646.647-.402 1.571-.633 2.771-.693v-.815c0-.872-.475-1.308-1.424-1.308-.604 0-1.259.271-1.961.814v-.703c.726-.455 1.417-.682 2.073-.682.582 0 1.061.143 1.438.428.377.285.565.7.565 1.242v3.988c0 .22.051.33.154.33.131 0 .435-.192.915-.573M84.114 29.427l-4.807 9.682h-.7l2.245-4.523-2.706-5.159h.718l2.33 4.471 2.22-4.47zM88.08 35.832h.691v-9.725h-.691zM96.703 35.289c.722 0 1.324-.252 1.808-.756s.726-1.135.726-1.896c0-.756-.243-1.39-.729-1.901a2.399 2.399 0 0 0-1.805-.765c-.726 0-1.332.253-1.818.758-.487.506-.73 1.142-.73 1.908 0 .76.243 1.392.73 1.896.486.504 1.092.756 1.818.756m0-5.986c.931 0 1.707.318 2.328.953.621.637.932 1.429.932 2.38 0 .948-.31 1.737-.932 2.37-.62.635-1.397.95-2.328.95-.93 0-1.709-.315-2.335-.95-.626-.633-.938-1.422-.938-2.37 0-.951.312-1.743.938-2.38.626-.635 1.404-.953 2.335-.953M108.738 30.38l-.355.559c-.48-.425-.866-.638-1.157-.638-.575 0-1.19.535-1.844 1.604v3.51h-.614v-5.588h.614v1.47h.024c.688-1.052 1.36-1.58 2.013-1.58.375 0 .815.222 1.32.662"/><g><path d="M27.654 19.434h2.407a1.044 1.044 0 1 0 0-2.09h-2.407v-1.69a1.044 1.044 0 0 0-2.09 0v8.802a3.34 3.34 0 0 1-3.33 3.344 3.347 3.347 0 0 1-3.341-3.344 1.045 1.045 0 0 0-2.09 0c0 1.844-1.5 3.344-3.343 3.344a3.347 3.347 0 0 1-3.343-3.344 1.045 1.045 0 0 0-2.09 0 5.438 5.438 0 0 0 5.433 5.432c1.8 0 3.399-.88 4.389-2.232a5.425 5.425 0 0 0 4.386 2.232 5.41 5.41 0 0 0 4.376-2.23 5.43 5.43 0 0 0 4.386 2.23 5.44 5.44 0 0 0 5.433-5.432 1.045 1.045 0 0 0-2.09 0c0 1.844-1.5 3.344-3.343 3.344a3.348 3.348 0 0 1-3.343-3.298v-5.068zm16.502 3.187c0 12.113-9.82 21.933-21.932 21.933-12.113 0-21.932-9.82-21.932-21.933S10.11.69 22.224.69c12.113 0 21.932 9.82 21.932 21.932z"/></g></g></svg>